<?xml version="1.0" encoding="UTF-8"?>
<svg xmlns="http://www.w3.org/2000/svg" width="1600" height="1067" viewBox="0 0 1600 1067">
  <defs>
    <linearGradient id="bg" x1="0%" y1="0%" x2="100%" y2="100%">
      <stop offset="0%" stop-color="#0a1f3d"/>
      <stop offset="100%" stop-color="#1e3a5f"/>
    </linearGradient>
    <radialGradient id="glow" cx="50%" cy="45%" r="55%">
      <stop offset="0%" stop-color="#c9a961" stop-opacity="0.12"/>
      <stop offset="100%" stop-color="#c9a961" stop-opacity="0"/>
    </radialGradient>
  </defs>
  <rect width="1600" height="1067" fill="url(#bg)"/>
  <rect width="1600" height="1067" fill="url(#glow)"/>
  <rect x="0" y="0" width="1600" height="4" fill="#c9a961" opacity="0.6"/>
  <rect x="0" y="1063" width="1600" height="4" fill="#c9a961" opacity="0.6"/>
  
        <g transform="translate(774, 475)" fill="#c9a961">
          <path d="M4 8 Q4 4 8 4 L26 4 L26 44 L8 44 Q4 44 4 40 Z" opacity="0.85"/>
          <path d="M26 4 L44 4 Q48 4 48 8 L48 40 Q48 44 44 44 L26 44 Z" />
          <line x1="26" y1="4" x2="26" y2="44" stroke="#061429" stroke-width="1.5"/>
        </g>
  <text x="800" y="573" text-anchor="middle"
        font-family="Georgia, 'Times New Roman', serif"
        font-size="66" font-weight="bold"
        fill="#faf7f0" letter-spacing="0.5">Mentorship Masterclass</text>
  <text x="800" y="599" text-anchor="middle" font-family="Arial, sans-serif" font-size="33" fill="#e0c98c" opacity="0.85">Investigative methods</text>
</svg>