<?xml version="1.0" encoding="UTF-8"?>
<svg xmlns="http://www.w3.org/2000/svg" width="2400" height="1600" viewBox="0 0 2400 1600">
  <defs>
    <linearGradient id="bg" x1="0%" y1="0%" x2="100%" y2="100%">
      <stop offset="0%" stop-color="#0a1f3d"/>
      <stop offset="100%" stop-color="#1e3a5f"/>
    </linearGradient>
    <radialGradient id="glow" cx="50%" cy="45%" r="55%">
      <stop offset="0%" stop-color="#c9a961" stop-opacity="0.12"/>
      <stop offset="100%" stop-color="#c9a961" stop-opacity="0"/>
    </radialGradient>
  </defs>
  <rect width="2400" height="1600" fill="url(#bg)"/>
  <rect width="2400" height="1600" fill="url(#glow)"/>
  <rect x="0" y="0" width="2400" height="4" fill="#c9a961" opacity="0.6"/>
  <rect x="0" y="1596" width="2400" height="4" fill="#c9a961" opacity="0.6"/>
  
        <g transform="translate(1178, 745)" fill="#c9a961">
          <path d="M22 48 C22 48 4 36 4 20 C4 12 10 6 16 6 C19 6 22 8 22 12 C22 8 25 6 28 6 C34 6 40 12 40 20 C40 36 22 48 22 48 Z"/>
        </g>
  <text x="1200" y="840" text-anchor="middle"
        font-family="Georgia, 'Times New Roman', serif"
        font-size="100" font-weight="bold"
        fill="#faf7f0" letter-spacing="0.5">Carry the Candle Forward</text>
  <text x="1200" y="866" text-anchor="middle" font-family="Arial, sans-serif" font-size="50" fill="#e0c98c" opacity="0.85">Your gift makes the work possible</text>
</svg>