<?xml version="1.0" encoding="UTF-8"?>
<svg xmlns="http://www.w3.org/2000/svg" width="2400" height="1600" viewBox="0 0 2400 1600">
  <defs>
    <linearGradient id="bg" x1="0%" y1="0%" x2="100%" y2="100%">
      <stop offset="0%" stop-color="#0a1f3d"/>
      <stop offset="100%" stop-color="#1e3a5f"/>
    </linearGradient>
    <radialGradient id="glow" cx="50%" cy="45%" r="55%">
      <stop offset="0%" stop-color="#c9a961" stop-opacity="0.12"/>
      <stop offset="100%" stop-color="#c9a961" stop-opacity="0"/>
    </radialGradient>
  </defs>
  <rect width="2400" height="1600" fill="url(#bg)"/>
  <rect width="2400" height="1600" fill="url(#glow)"/>
  <rect x="0" y="0" width="2400" height="4" fill="#c9a961" opacity="0.6"/>
  <rect x="0" y="1596" width="2400" height="4" fill="#c9a961" opacity="0.6"/>
  
        <g transform="translate(1172, 740)" fill="none" stroke="#c9a961" stroke-width="2.5">
          <rect x="4" y="10" width="48" height="40" />
          <line x1="4" y1="50" x2="52" y2="50"/>
          <line x1="14" y1="20" x2="20" y2="20"/>
          <line x1="28" y1="20" x2="34" y2="20"/>
          <line x1="42" y1="20" x2="48" y2="20"/>
          <line x1="14" y1="30" x2="20" y2="30"/>
          <line x1="28" y1="30" x2="34" y2="30"/>
          <line x1="42" y1="30" x2="48" y2="30"/>
          <line x1="14" y1="40" x2="20" y2="40"/>
          <line x1="28" y1="40" x2="34" y2="40"/>
          <line x1="42" y1="40" x2="48" y2="40"/>
        </g>
  <text x="1200" y="840" text-anchor="middle"
        font-family="Georgia, 'Times New Roman', serif"
        font-size="100" font-weight="bold"
        fill="#faf7f0" letter-spacing="0.5">Admin Dashboard</text>
  <text x="1200" y="866" text-anchor="middle" font-family="Arial, sans-serif" font-size="50" fill="#e0c98c" opacity="0.85">Foundation Management Console</text>
</svg>