<?xml version="1.0" encoding="UTF-8"?>
<svg xmlns="http://www.w3.org/2000/svg" width="2400" height="1600" viewBox="0 0 2400 1600">
  <defs>
    <linearGradient id="bg" x1="0%" y1="0%" x2="100%" y2="100%">
      <stop offset="0%" stop-color="#0a1f3d"/>
      <stop offset="100%" stop-color="#1e3a5f"/>
    </linearGradient>
    <radialGradient id="glow" cx="50%" cy="45%" r="55%">
      <stop offset="0%" stop-color="#c9a961" stop-opacity="0.12"/>
      <stop offset="100%" stop-color="#c9a961" stop-opacity="0"/>
    </radialGradient>
  </defs>
  <rect width="2400" height="1600" fill="url(#bg)"/>
  <rect width="2400" height="1600" fill="url(#glow)"/>
  <rect x="0" y="0" width="2400" height="4" fill="#c9a961" opacity="0.6"/>
  <rect x="0" y="1596" width="2400" height="4" fill="#c9a961" opacity="0.6"/>
  
        <g transform="translate(1172, 742)" fill="none" stroke="#c9a961" stroke-width="2.5" stroke-linecap="round" stroke-linejoin="round">
          <path d="M4 30 L4 18 Q4 14 8 14 Q12 14 12 18 L12 26"/>
          <path d="M12 26 L12 12 Q12 8 16 8 Q20 8 20 12 L20 24"/>
          <path d="M20 24 L20 10 Q20 6 24 6 Q28 6 28 10 L28 22"/>
          <path d="M28 22 L28 14 Q28 10 32 10 Q36 10 36 14 L36 30"/>
          <path d="M36 30 L36 22 Q36 18 40 18 Q44 18 44 22 L44 36 Q44 48 32 48 Q20 48 16 42 L8 32"/>
        </g>
  <text x="1200" y="840" text-anchor="middle"
        font-family="Georgia, 'Times New Roman', serif"
        font-size="100" font-weight="bold"
        fill="#faf7f0" letter-spacing="0.5">Lend Your Hands to the Work</text>
  <text x="1200" y="866" text-anchor="middle" font-family="Arial, sans-serif" font-size="50" fill="#e0c98c" opacity="0.85">Join a community of service</text>
</svg>